<?xml version="1.0" encoding="utf-8"?>
<!-- Generator: Adobe Illustrator 25.0.0, SVG Export Plug-In . SVG Version: 6.00 Build 0)  -->
<svg version="1.1" id="Layer_1" xmlns="http://www.w3.org/2000/svg" xmlns:xlink="http://www.w3.org/1999/xlink" x="0px" y="0px"
	 viewBox="0 0 50 50" style="enable-background:new 0 0 50 50;" xml:space="preserve">
<style type="text/css">
	.st0{fill:#24B865;}
	.st1{clip-path:url(#SVGID_3_);}
	.st2{fill:none;stroke:#FFFFFF;stroke-width:0.2427;stroke-linecap:round;stroke-linejoin:round;stroke-miterlimit:10;}
	.st3{clip-path:url(#SVGID_5_);fill:none;}
	.st4{fill:#FFFFFF;}
	.st5{fill:#FFFFFF;stroke:#24B865;stroke-width:9.708111e-02;stroke-linecap:round;stroke-linejoin:round;}
	.st6{clip-path:url(#SVGID_7_);fill:none;}
	.st7{fill:#FFFFFF;stroke:#24B865;stroke-width:9.708111e-02;stroke-linecap:round;}
	.st8{clip-path:url(#SVGID_9_);fill:none;}
	.st9{fill:none;stroke:#FFFFFF;stroke-width:0.1618;stroke-miterlimit:10;}
	.st10{fill:#FFFFFF;stroke:#FFFFFF;stroke-width:0.1618;stroke-linecap:round;stroke-linejoin:round;}
	
		.st11{fill-rule:evenodd;clip-rule:evenodd;fill:#24B865;stroke:#FFFFFF;stroke-width:9.708111e-02;stroke-linecap:round;stroke-linejoin:round;}
	.st12{fill:none;stroke:#FFFFFF;stroke-width:9.708111e-02;stroke-linecap:round;stroke-linejoin:round;}
	.st13{fill:#CC0000;}
	.st14{fill:none;stroke:#FFFFFF;stroke-width:0.2427;stroke-linecap:round;stroke-linejoin:round;}
	
		.st15{fill:#FFFFFF;stroke:#FFFFFF;stroke-width:4.619793e-02;stroke-linecap:round;stroke-linejoin:round;stroke-miterlimit:2.8552;}
	.st16{fill:none;stroke:#FFFFFF;stroke-width:4.619793e-02;stroke-linecap:round;stroke-linejoin:round;stroke-miterlimit:2.8552;}
	.st17{fill:none;stroke:#FFFFFF;stroke-width:1.847917e-02;stroke-miterlimit:1.1421;}
	.st18{fill:#FFFFFF;stroke:#FFFFFF;stroke-width:0.2427;stroke-linecap:round;stroke-linejoin:round;}
	.st19{fill-rule:evenodd;clip-rule:evenodd;fill:#24B865;}
	.st20{fill:none;stroke:#646464;stroke-width:0.4867;}
	.st21{fill:#24B865;stroke:#FFFFFF;stroke-width:0.2427;stroke-linecap:round;stroke-linejoin:round;}
	.st22{fill:none;stroke:#FFFFFF;stroke-width:0.4045;stroke-linecap:round;stroke-linejoin:round;stroke-miterlimit:10;}
</style>
<g>
	<g>
		<path id="SVGID_1_" class="st0" d="M40.9,17.4c0,0,2.9,24.6-15.9,28.6C6.2,42,9.1,17.4,9.1,17.4S19.8,7.5,37.8,4
			C37.8,4,40.2,9.7,40.9,17.4z"/>
	</g>
	<g>
		<g>
			<defs>
				<path id="SVGID_2_" d="M40.9,17.4c0,0,2.9,24.6-15.9,28.6C6.2,42,9.1,17.4,9.1,17.4S19.8,7.5,37.8,4C37.8,4,40.2,9.7,40.9,17.4z
					"/>
			</defs>
			<clipPath id="SVGID_3_">
				<use xlink:href="#SVGID_2_"  style="overflow:visible;"/>
			</clipPath>
			<g class="st1">
				<g id="g78822" transform="translate(-544.934,251.396)">
					<path id="path7014-6-7-28-3-2-4-5-1" class="st2" d="M556-221.2c0,1.1,0.1,1.9,0.6,2.6c0.6,0.8,1.7,1.4,3.1,1.9
						c1.4-0.6,2.5-1.1,3.1-1.9c0.6-0.6,0.6-1.5,0.6-2.6c0-1.1,0-2.5,0-3.6c-1.2,0.9-3.1,0.6-3.8,0c-0.9,0.6-2.7,0.9-3.7,0
						C555.9-223.7,555.9-222.3,556-221.2L556-221.2z"/>
					<g id="g84776-5_1_" transform="matrix(0.156684,0,0,0.189706,-492.101,245.296)">
						<g>
							<g>
								<g>
									<defs>
										<polygon id="SVGID_4_" points="6716.9,-2461.9 6714.7,-2470 6718.9,-2466 6719.7,-2471.2 6721.7,-2466.5 6723.5,-2471.9 
											6725.3,-2466.5 6727.2,-2471.2 6728.1,-2466 6732.3,-2470 6730.1,-2461.9 6730.1,-2457.9 6716.9,-2457.9 										"/>
									</defs>
									<clipPath id="SVGID_5_">
										<use xlink:href="#SVGID_4_"  style="overflow:visible;"/>
									</clipPath>
									<ellipse id="circle7886-1_1_" class="st3" cx="6723.5" cy="-2477.2" rx="2.4" ry="3.2"/>
								</g>
							</g>
						</g>
						<path id="path3929-42-2-1_1_" class="st4" d="M6713.7-2468.7c1,1.9,1.9,3.8,2.9,5.6h14.2c1.1-1.9,1.9-3.8,2.9-5.6l-3.6,3.1
							l-0.3-5l-3.9,4.6l-2-5.1l-2.2,5.1l-3.5-4.6l-0.7,5L6713.7-2468.7z"/>
						<path id="path9241-03_1_" class="st4" d="M6723.7-2461.7c-2.6,0-4.9,0.6-6.5,1.4c0.1-0.1-0.1-1-0.2-1.7c-0.2-0.9-0.5-1-0.5-1
							c1.8-0.9,4.5-1.5,7.2-1.5c2.8,0,5.4,0.6,7.2,1.5c0,0-0.4,0.2-0.5,1.1c-0.2,0.7-0.3,1.6-0.2,1.7
							C6728.6-2461.1,6726.3-2461.6,6723.7-2461.7"/>
						<path id="path9243-6_1_" class="st0" d="M6723.7-2464.3c-2.8,0-5.3,0.6-7.1,1.4c-0.1,0.1-0.3,0-0.3-0.2c0-0.2,0-0.4,0.1-0.5
							c1.8-0.9,4.4-1.5,7.2-1.5c2.8,0,5.4,0.6,7.2,1.5c0.1,0.1,0.2,0.3,0.1,0.5c0,0.2-0.2,0.3-0.3,0.2
							C6729-2463.8,6726.5-2464.3,6723.7-2464.3"/>
						<path id="path9371-96_1_" class="st4" d="M6723.7-2458.2c-2.5,0-4.8-0.5-6.4-1.3c-0.1-0.1-0.2-0.2-0.2-0.4
							c0-0.2,0.1-0.4,0.2-0.4c1.6-0.8,3.9-1.3,6.4-1.3c2.5,0,4.8,0.5,6.4,1.3c0.1,0.1,0.2,0.2,0.2,0.4c0,0.2-0.1,0.4-0.2,0.4
							C6728.5-2458.7,6726.3-2458.2,6723.7-2458.2"/>
						<path id="path9373-9_1_" class="st0" d="M6723.7-2458.8c-2.3,0-4.3-0.5-5.9-1.1c1.6-0.7,3.6-1.1,5.9-1.1
							c2.3,0,4.4,0.4,5.9,1.1C6728.1-2459.2,6726-2458.8,6723.7-2458.8"/>
						<path id="path9375-6_1_" class="st5" d="M6723.7-2462.2c-0.6,0-1.1-0.4-1.1-0.8s0.5-0.8,1.1-0.8c0.6,0,1.1,0.4,1.1,0.8
							C6724.8-2462.6,6724.3-2462.2,6723.7-2462.2"/>
						<path id="path9379-95_1_" class="st5" d="M6730.5-2462.5C6730.5-2462.5,6730.5-2462.5,6730.5-2462.5c-0.6-0.3-1.2-0.2-1.2,0.3
							c-0.1,0.4,0.3,1,0.9,1.3c0-0.1,0.1-0.1,0.1-0.2c0-0.1,0.1-0.2,0.1-0.3c0-0.1,0.1-0.2,0.1-0.3c0-0.1,0-0.2,0-0.3
							c0-0.1,0-0.2,0-0.3C6730.6-2462.3,6730.5-2462.4,6730.5-2462.5L6730.5-2462.5z"/>
						<path id="path9383-42_1_" class="st5" d="M6716.9-2462.5c0.6-0.3,1.1-0.1,1.2,0.3c0.1,0.4-0.3,1-0.9,1.3
							c0-0.1-0.1-0.1-0.1-0.2c0-0.1-0.1-0.2-0.1-0.3c0-0.1-0.1-0.2-0.1-0.3c0-0.1,0-0.2,0-0.3c0-0.1,0-0.2,0-0.3
							C6716.9-2462.3,6716.9-2462.4,6716.9-2462.5C6716.9-2462.5,6716.9-2462.5,6716.9-2462.5z"/>
					</g>
					<g id="g84776-5_2_" transform="matrix(0.156684,0,0,0.189706,-492.101,245.296)">
						<g>
							<g>
								<g>
									<defs>
										<polygon id="SVGID_6_" points="6695.3,-2461.9 6693.1,-2470 6697.3,-2466 6698.2,-2471.2 6700.2,-2466.5 6701.9,-2471.9 
											6703.7,-2466.5 6705.6,-2471.2 6706.5,-2466 6710.7,-2470 6708.5,-2461.9 6708.5,-2457.9 6695.3,-2457.9 										"/>
									</defs>
									<clipPath id="SVGID_7_">
										<use xlink:href="#SVGID_6_"  style="overflow:visible;"/>
									</clipPath>
									<ellipse id="circle7886-1_2_" class="st6" cx="6701.9" cy="-2477.2" rx="2.4" ry="3.2"/>
								</g>
							</g>
						</g>
						<path id="path3929-42-2-1_2_" class="st4" d="M6692.1-2468.7c1,1.9,1.9,3.8,2.9,5.6h14.2c1.1-1.9,1.9-3.8,2.9-5.6l-3.6,3.1
							l-0.3-5l-3.9,4.6l-2-5.1l-2.2,5.1l-3.5-4.6l-0.7,5L6692.1-2468.7z"/>
						<path id="path9241-03_2_" class="st4" d="M6702.1-2461.7c-2.6,0-4.9,0.6-6.5,1.4c0.1-0.1-0.1-1-0.2-1.7c-0.2-0.9-0.5-1-0.5-1
							c1.8-0.9,4.5-1.5,7.2-1.5c2.8,0,5.4,0.6,7.2,1.5c0,0-0.4,0.2-0.6,1.1c-0.2,0.7-0.3,1.6-0.2,1.7
							C6707-2461.1,6704.7-2461.6,6702.1-2461.7"/>
						<path id="path9243-6_2_" class="st0" d="M6702.1-2464.3c-2.8,0-5.3,0.6-7.1,1.4c-0.1,0.1-0.3,0-0.3-0.2c0-0.2,0-0.4,0.1-0.5
							c1.8-0.9,4.4-1.5,7.2-1.5c2.8,0,5.4,0.6,7.2,1.5c0.1,0.1,0.2,0.3,0.1,0.5c0,0.2-0.2,0.3-0.3,0.2
							C6707.4-2463.8,6704.9-2464.3,6702.1-2464.3"/>
						<path id="path9371-96_2_" class="st4" d="M6702.1-2458.2c-2.5,0-4.8-0.5-6.4-1.3c-0.1-0.1-0.2-0.2-0.2-0.4
							c0-0.2,0.1-0.4,0.2-0.4c1.6-0.8,3.9-1.3,6.4-1.3s4.8,0.5,6.4,1.3c0.1,0.1,0.2,0.2,0.2,0.4c0,0.2-0.1,0.4-0.2,0.4
							C6706.9-2458.7,6704.7-2458.2,6702.1-2458.2"/>
						<path id="path9373-9_2_" class="st0" d="M6702.1-2458.8c-2.3,0-4.3-0.5-5.9-1.1c1.6-0.7,3.6-1.1,5.9-1.1
							c2.3,0,4.4,0.4,5.9,1.1C6706.5-2459.2,6704.4-2458.8,6702.1-2458.8"/>
						<path id="path9375-6_2_" class="st7" d="M6702.1-2462.2c-0.6,0-1.1-0.4-1.1-0.8s0.5-0.8,1.1-0.8s1.1,0.4,1.1,0.8
							C6703.2-2462.6,6702.7-2462.2,6702.1-2462.2"/>
						<path id="path9379-95_2_" class="st7" d="M6709-2462.5C6708.9-2462.5,6708.9-2462.5,6709-2462.5c-0.6-0.3-1.2-0.2-1.2,0.3
							c-0.1,0.4,0.3,1,0.9,1.3c0-0.1,0.1-0.1,0.1-0.2c0-0.1,0.1-0.2,0.1-0.3c0-0.1,0.1-0.2,0.1-0.3c0-0.1,0-0.2,0-0.3
							c0-0.1,0-0.2,0-0.3C6709-2462.3,6709-2462.4,6709-2462.5L6709-2462.5z"/>
						<path id="path9383-42_2_" class="st7" d="M6695.3-2462.5c0.6-0.3,1.1-0.1,1.2,0.3c0.1,0.4-0.3,1-0.9,1.3
							c0-0.1-0.1-0.1-0.1-0.2c0-0.1-0.1-0.2-0.1-0.3c0-0.1-0.1-0.2-0.1-0.3c0-0.1,0-0.2,0-0.3c0-0.1,0-0.2,0-0.3
							C6695.3-2462.3,6695.3-2462.4,6695.3-2462.5C6695.3-2462.5,6695.3-2462.5,6695.3-2462.5z"/>
					</g>
					<g id="g84776-5_3_" transform="matrix(0.156684,0,0,0.189706,-492.101,245.296)">
						<g>
							<g>
								<g>
									<defs>
										<polygon id="SVGID_8_" points="6706.1,-2447 6703.9,-2455 6708.1,-2451 6709,-2456.2 6710.9,-2451.5 6712.7,-2457 
											6714.5,-2451.5 6716.4,-2456.2 6717.3,-2451 6721.5,-2455 6719.3,-2447 6719.3,-2442.9 6706.1,-2442.9 										"/>
									</defs>
									<clipPath id="SVGID_9_">
										<use xlink:href="#SVGID_8_"  style="overflow:visible;"/>
									</clipPath>
									<ellipse id="circle7886-1_3_" class="st8" cx="6712.7" cy="-2462.3" rx="2.4" ry="3.2"/>
								</g>
							</g>
						</g>
						<path id="path3929-42-2-1_3_" class="st4" d="M6702.9-2453.8c1,1.9,1.9,3.8,2.9,5.6h14.2c1.1-1.9,1.9-3.8,2.9-5.6l-3.6,3.1
							l-0.3-5l-3.9,4.6l-2-5.1l-2.2,5.1l-3.5-4.6l-0.7,5L6702.9-2453.8z"/>
						<path id="path9241-03_3_" class="st4" d="M6712.9-2446.7c-2.6,0-4.9,0.6-6.5,1.4c0.1-0.1-0.1-1-0.2-1.7c-0.2-0.9-0.5-1-0.5-1
							c1.8-0.9,4.5-1.5,7.2-1.5c2.8,0,5.4,0.6,7.2,1.5c0,0-0.4,0.2-0.6,1.1c-0.2,0.7-0.3,1.6-0.2,1.7
							C6717.8-2446.1,6715.5-2446.7,6712.9-2446.7"/>
						<path id="path9243-6_3_" class="st0" d="M6712.9-2449.4c-2.8,0-5.3,0.6-7.1,1.4c-0.1,0.1-0.3,0-0.3-0.2c0-0.2,0-0.4,0.1-0.5
							c1.8-0.9,4.4-1.5,7.2-1.5c2.8,0,5.4,0.6,7.2,1.5c0.1,0.1,0.2,0.3,0.1,0.5c0,0.2-0.2,0.3-0.3,0.2
							C6718.2-2448.8,6715.7-2449.4,6712.9-2449.4"/>
						<path id="path9371-96_3_" class="st4" d="M6712.9-2443.3c-2.5,0-4.8-0.5-6.4-1.3c-0.1-0.1-0.2-0.2-0.2-0.4
							c0-0.2,0.1-0.4,0.2-0.4c1.6-0.8,3.9-1.3,6.4-1.3s4.8,0.5,6.4,1.3c0.1,0.1,0.2,0.2,0.2,0.4c0,0.2-0.1,0.4-0.2,0.4
							C6717.7-2443.8,6715.5-2443.3,6712.9-2443.3"/>
						<path id="path9373-9_3_" class="st0" d="M6712.9-2443.8c-2.3,0-4.3-0.5-5.9-1.1c1.6-0.7,3.6-1.1,5.9-1.1
							c2.3,0,4.4,0.4,5.9,1.1C6717.3-2444.2,6715.2-2443.8,6712.9-2443.8"/>
						<path id="path9375-6_3_" class="st5" d="M6712.9-2447.2c-0.6,0-1.1-0.4-1.1-0.8c0-0.5,0.5-0.8,1.1-0.8s1.1,0.4,1.1,0.8
							C6714-2447.6,6713.5-2447.2,6712.9-2447.2"/>
						<path id="path9379-95_3_" class="st5" d="M6719.7-2447.5C6719.7-2447.5,6719.7-2447.5,6719.7-2447.5c-0.6-0.3-1.2-0.2-1.2,0.3
							c-0.1,0.4,0.3,1,0.9,1.3c0-0.1,0.1-0.1,0.1-0.2c0-0.1,0.1-0.2,0.1-0.3c0-0.1,0.1-0.2,0.1-0.3c0-0.1,0-0.2,0-0.3
							c0-0.1,0-0.2,0-0.3C6719.7-2447.3,6719.7-2447.4,6719.7-2447.5L6719.7-2447.5z"/>
						<path id="path9383-42_3_" class="st5" d="M6706.1-2447.5c0.6-0.3,1.1-0.1,1.2,0.3c0.1,0.4-0.3,1-0.9,1.3
							c0-0.1-0.1-0.1-0.1-0.2c0-0.1-0.1-0.2-0.1-0.3c0-0.1-0.1-0.2-0.1-0.3c0-0.1,0-0.2,0-0.3c0-0.1,0-0.2,0-0.3
							C6706.1-2447.3,6706.1-2447.4,6706.1-2447.5L6706.1-2447.5z"/>
					</g>
				</g>
				<g>
					<path id="path7014-6-7-28-3-2-4-5-1-1-1_1_" class="st2" d="M10.9,18.3c0,1.1,0.1,1.9,0.6,2.6c0.6,0.8,1.7,1.4,3.1,1.9
						c1.4-0.6,2.5-1.1,3.1-1.9c0.6-0.6,0.6-1.5,0.6-2.6c0-1.1,0-2.5,0-3.6c-1.2,0.9-3.1,0.6-3.8,0c-0.9,0.6-2.7,0.9-3.7,0
						C10.9,15.8,10.9,17.2,10.9,18.3L10.9,18.3z"/>
					<path id="path63519_4_" class="st9" d="M13.7,22.3v-0.8c0-0.5,0-1.2,0-1.6v-0.7h-1.4H11"/>
					<path id="path63519_3_" class="st9" d="M18.4,19.3H17h-1.3v0.4c0,0.3,0,2.5,0,2.7"/>
					<path id="path63519_5_" class="st9" d="M15.7,15.1v1v1H17h1.4"/>
					<path id="path63519_1_" class="st9" d="M10.9,17.2h1.4h1.4v-0.8c0-0.5,0-0.9,0-1v-0.2"/>
					<path id="path7014-6-7-28-2-87_1_" class="st10" d="M13.3,16.5c0,0.5,0,1.1,0,1.6c0,0.5,0,0.9,0.2,1.2c0.2,0.4,0.6,0.6,1.1,0.9
						c0.5-0.3,0.9-0.6,1.1-0.9C16,19,16,18.6,16,18.1s0-1.1,0-1.6H13.3L13.3,16.5z"/>
					<g id="g9597-9_1_" transform="matrix(-0.234377,0,0,0.231606,-73.243,415.548)">
						<g id="g10725-5_1_">
							<g id="g3657-9_1_" transform="matrix(1.21977,0,0,1.21977,-43.0033,-4.45441)">
								<path id="path8616-8_1_" class="st11" d="M-273.8-1403.8c0-0.1-0.1-0.4-0.1-0.4c-0.1-0.4-0.6-0.6-0.7-0.4
									c-0.1,0.1,0,0.5,0,0.7c0,0.2-0.3,0.7-0.3,1c0,0.3,0.1,1.5,0.1,1.8c0,0.4,0.4,0.6,0.6,0.9c0.2,0.3,0.4,0.5,0.5,0.9
									c0.1,0.5,0,0.6-0.1,1.2c0,0.1,2.3,0.5,3.2,0c-0.1-0.4-0.1-0.8-0.1-1.4c0.3-0.6,0.8-0.9,0.9-1.3c0.1-0.4,0.1-1.3,0.1-1.6
									c0-0.2-0.1-1.1-0.1-1.1c0-0.1,0-1.1,0-1.1s0-1,0-1.1c-0.1-0.5-0.8-0.4-0.9,0c0,0.1,0,1.4,0,1.4c0,0,0,0.8,0,0.9
									c0-0.1,0-1.5,0-1.7c0-0.5,0-1.5,0-1.6c0-0.4-0.8-0.5-0.9,0c0,0.1,0,1.6,0,1.6c0,0,0,1.4,0,1.5c0,0.1,0-2.3,0-2.3
									c0,0,0-0.8,0-1.2c0-0.5-1-0.6-1,0c0,0,0,1,0,1v0.3c0,0,0,1.9,0,2c0-0.1,0-0.9,0-0.9s0.1-2,0-2.1c-0.1-0.3-0.8-0.4-0.8,0.1
									c0,0,0,0.9,0,1s0,1,0,1.1c0,0,0,0.4,0,0.4C-273.8-1403.9-273.8-1403.8-273.8-1403.8L-273.8-1403.8z"/>
								<path id="path8681-8_1_" class="st12" d="M-273.8-1403.9c0.1,0.4-0.1,0.6-0.1,0.8c0,0.2,0.1,0.6,0.1,0.6l0,0.1
									c0,0,0.7,0.1,0.9,0.3c0.3,0.2,0.6,1.2,0.5,1.8"/>
							</g>
						</g>
					</g>
					<path id="path46369_1_" class="st13" d="M18.4,18.9L18.4,18.9L18.4,18.9L18.4,18.9L18.4,18.9z"/>
					<path id="path46371_1_" class="st13" d="M18.4,18.9L18.4,18.9L18.4,18.9L18.4,18.9L18.4,18.9z"/>
				</g>
				<g>
					<path id="path7014-6-7-28-3-2-4-5-1-1_1_" class="st14" d="M31.5,18.3c0,1.1,0.1,1.9,0.6,2.6c0.6,0.8,1.7,1.4,3.1,1.9
						c1.4-0.6,2.5-1.1,3.1-1.9c0.6-0.6,0.6-1.5,0.6-2.6c0-1.1,0-2.5,0-3.6c-1.2,0.9-3.1,0.6-3.8,0c-0.9,0.6-2.7,0.9-3.7,0
						C31.5,15.8,31.5,17.2,31.5,18.3L31.5,18.3z"/>
					<g id="g113300_1_" transform="matrix(0.87394196,0,0,0.90257648,-176.44322,55.820288)">
						<g id="g30394-4_1_" transform="matrix(0.03554807,-0.00735372,0.00789863,0.0334871,968.97343,435.61974)">
							<g id="g28386-1-5_1_" transform="matrix(8.9876989,0,0,9.1852387,-7108.3373,1263.1939)">
								<path id="path10147-8-3-7-4-6-1_1_" class="st15" d="M-1040.3-2074c-0.7,0-0.7,0-0.9-0.1c-0.1,0-0.2-0.1-0.2-0.1l-0.1,0
									c0,0-0.1,0-0.1,0s1.1-2.7,2.4-5.9l2.4-5.9l-0.1-0.1c-0.1-0.2-0.1-0.3-0.3-0.4c0,0-0.1,0-0.1-0.1c0,0-0.1,0-0.1,0
									c0,0-0.1,0-0.1,0s-0.1,0-0.2,0l-0.1,0l0.1-0.1c0.1-0.1,0.2-0.1,0.2-0.1c0.1,0,0.6,0.1,0.8,0.2c0.3,0.1,0.5,0.2,0.7,0.4
									l0.2,0.1l0,0.2c0.1,0.2,0.1,0.3,0,0.5c0,0.1-0.8,2.6-1.8,5.6c-1,3-1.8,5.6-1.9,5.8c-0.1,0.2-0.1,0.3-0.1,0.3
									C-1039.6-2073.9-1039.9-2074-1040.3-2074z"/>
								<path id="path10163-2-7-5-7-0-4_1_" class="st15" d="M-1045.4-2087.2c0.2-0.3,0.7-0.9,1-1.3c0.1-0.2,0.3-0.4,0.5-0.6l0,0
									l-0.7,0.9C-1045.3-2087.3-1045.4-2087.2-1045.4-2087.2C-1045.4-2087.2-1045.4-2087.2-1045.4-2087.2z"/>
								<path id="path10157-4-6-6-3-2-1_1_" class="st15" d="M-1044.1-2072.2c-0.2,0-0.3-0.1-0.5-0.5l0,0l0,0
									c-0.1,0.1-0.4,0.1-0.6,0.1c-0.2-0.1-0.4-0.4-0.4-0.6c0-0.3,0.3-0.4,0.5-0.4c0.1,0,0.3,0.2,0.3,0.3c0,0.1,0,0.1,0,0.2
									c0,0-0.1,0.1-0.1,0.1c-0.1,0-0.1,0-0.2,0c-0.1,0-0.1-0.1-0.1,0c0,0,0.1,0.1,0.2,0.1c0.1,0,0.2,0,0.3-0.1s0-0.3,0-0.3
									c0,0-0.1-0.2-0.3-0.5c-0.2-0.3-0.4-0.7-0.6-1.1l-0.9-1.5h-0.1c-0.1,0-0.2-0.1-0.2-0.2c0,0,0-0.1,0.1-0.1
									c0.1-0.1,0.1-0.1,0-0.1s-0.1-0.1,0-0.2c0,0,0.1-0.1,0.1-0.1c0,0-0.1-0.2-0.2-0.4c-0.3-0.9-0.4-1.7-0.5-2.5
									c-0.1-0.7,0-1.8,0.1-2.6c0.2-1.5,0.9-2.8,1.7-3.8c0.1-0.1,0.1-0.1,0.1-0.1s0,0-0.1-0.1c-0.1-0.1-0.1-0.1,0-0.2
									c0,0,0-0.1,0-0.1h-0.1l0.1-0.1c0-0.1,0.2-0.1,0.3,0c0.1,0,0.1,0,0.8-0.9c0.4-0.5,0.7-1,0.7-1s0.3,0.3,0.6,0.6l0.6,0.6
									l-0.2,0.2c-1.6,1.5-2.8,3.5-3,5.4c-0.1,0.5-0.1,1.3,0,1.8c0.2,1,0.5,2,1.2,3.5l0.2,0.4l0.5,0.5c0.3,0.3,0.6,0.6,0.6,0.7
									l0.2,0.2l-0.2,0.2c-0.7,0.8-1,1.5-1.1,1.9C-1044.5-2072.5-1044.4-2072.4-1044.1-2072.2c0.4,0.2,1.2-0.3,2.5-1.3
									c0.2-0.1,0.4-0.4,0.4-0.4s0.1,0,0,0.1c-0.3,0.3-0.6,0.5-0.8,0.7s-0.5,0.4-0.8,0.6c-0.3,0.1-0.6,0.4-0.7,0.3
									C-1043.6-2072.2-1044-2072.2-1044.1-2072.2L-1044.1-2072.2z"/>
								<path id="path10151-5-3-0-4-4-2_1_" class="st15" d="M-1043.8-2075.9c-0.4-0.4-0.7-0.7-0.7-0.8c0,0,1-1.5,2.2-3.3
									c1.9-2.9,2.3-3.5,3.3-5c0.6-0.9,1.2-1.7,1.2-1.7c0.1-0.1,0.7,0.1,0.7,0.3c0,0-6,11.2-6.1,11.3
									C-1043.2-2075.1-1043.5-2075.5-1043.8-2075.9L-1043.8-2075.9z"/>
								<path id="path10167-2-8-6-0-9-6_1_" class="st15" d="M-1045-2073.6l-0.2-0.4c-0.3-0.5-0.5-0.8-0.7-1.2
									c-0.2-0.4-0.5-0.8-0.6-1.1l-0.1-0.2h0c0,0,0,0,0,0c0,0,0.4,0.7,0.8,1.5C-1045.4-2074.2-1044.9-2073.5-1045-2073.6
									C-1044.9-2073.5-1045-2073.6-1045-2073.6L-1045-2073.6z"/>
								<path id="path10159-9-5-0-8-0-6-4_1_" class="st4" d="M-1044.1-2072.4c-0.2,0-0.3-0.2-0.4-0.4c-0.1-0.4,0.3-1.1,0.9-1.8
									c0.1-0.2,0.4-0.5,0.4-0.5s0.3,0.2,0.7,0.5l0.7,0.5l0.2,0.1c0.1,0,0.2,0.1,0.2,0.1c0,0-0.7,0.6-1,0.8
									C-1043.1-2072.6-1043.6-2072.3-1044.1-2072.4L-1044.1-2072.4z"/>
								<path id="path10149-9-9-4-8-2-3_1_" class="st15" d="M-1042.4-2074.7c-0.4-0.2-0.7-0.4-0.7-0.4c0,0,6-11.3,6-11.3
									c0,0,0.1,0.1,0.1,0.3l0.1,0.1l-2.4,5.9c-1.3,3.2-2.4,5.9-2.4,5.9C-1041.7-2074.2-1042.1-2074.4-1042.4-2074.7z"/>
								<path id="path4728-1-5-2-8-2-6-5-1-0_1_" class="st15" d="M-1044.5-2089.6v-0.2l1.6-1.1l0.1,0.1"/>
								<path id="path3000-3-5-2-6-0-2-0-3-5_1_" class="st15" d="M-1037.1-2087.3c-0.1-0.2-0.3-0.4-0.5-0.4c-0.1,0-0.1,0.1-0.3,0.1
									c-0.1,0.1-0.2,0.1-0.3,0.2c-0.2,0.1-0.5,0.2-0.7,0.3c-0.2,0.1-0.5,0.2-0.7,0.2c-0.2,0.1-0.4,0.1-0.6,0.1
									c-0.3,0-0.5,0-0.7-0.1c-0.5-0.1-0.9-0.4-1.2-0.6l-0.6-0.5l-1.8-1.8l1.7-1.2c0.1,0.1,0.2,0.3,0.4,0.5
									c0.2,0.2,0.4,0.4,0.6,0.6c0.2,0.2,0.4,0.5,0.6,0.6c0.4,0.4,0.8,0.6,1.3,0.6c0.2,0,0.4,0,0.6-0.1c0.4-0.1,0.7-0.3,1.2-0.4
									c0.5-0.1,1,0,1.4,0.2c0.2,0.1,0.4,0.2,0.5,0.4c0.5,0.6,0.6,0.8,0.4,1.5"/>
								<path id="path2996-5-7-5-4-9-4-4-8-2-6_1_" class="st15" d="M-1037.5-2086.9c1.1,0.2,1.2,0.3,1.7,0.7l-0.1-0.6
									c-0.6-0.3-0.8-0.4-1.4-0.5L-1037.5-2086.9z"/>
								<path id="path3002-1-5-3-6-4-1-2-3-0_1_" class="st16" d="M-1041.1-2074c-0.7,0.6-2.2,2.1-3.1,1.8c-0.1,0-0.1-0.1-0.2-0.1
									c-0.1-0.1-0.2-0.2-0.2-0.4c-0.1,0.1-0.4,0.2-0.5,0.1c-0.1,0-0.2-0.1-0.3-0.1c-0.2-0.2-0.2-0.4-0.1-0.6
									c0-0.1,0.1-0.2,0.2-0.2c0.2-0.1,0.4-0.1,0.5,0.1l-1.8-3.1c-0.3,0-0.5-0.2-0.3-0.4c-0.2-0.1-0.1-0.2,0-0.4
									c-0.4-1.1-0.6-2.2-0.7-3.4c0-1.7,0.3-3.3,1-4.8c0.3-0.5,0.6-0.9,0.9-1.3c-0.1-0.1-0.1-0.2,0-0.3c0,0-0.1,0-0.1-0.1
									c0,0,0-0.1,0-0.1c0.1-0.1,0.3-0.1,0.4-0.1l1.5-1.9"/>
								<path id="path3026-8-6-2-5-4-1-9-1-8_1_" class="st17" d="M-1045.3-2073c0.1,0.1,0.2,0.1,0.3,0.1c0.2,0,0.3-0.1,0.3-0.3
									c0-0.1-0.1-0.1-0.1-0.2"/>
								<polygon id="rect4657-4-2-1-9-8-3-2-8-2_1_" class="st15" points="-1044,-2090.4 -1043.8,-2090.2 -1044.3,-2089.9 
									-1044.4,-2090.1 								"/>
								<polygon id="rect4657-0-0-3-0-9-3-9-7-8-1-7_1_" class="st15" points="-1043.3,-2090.9 -1043.1,-2090.7 -1043.5,-2090.4 
									-1043.7,-2090.6 								"/>
								<path id="path4634-0-1-1-2-0-1-3-9-4_1_" class="st4" d="M-1043.2-2088.9l0.1,12.9l-0.2,0.1l-0.1-13L-1043.2-2088.9z"/>
								<path id="path4634-0-1-1-2-0-1-4-4-0_1_" class="st4" d="M-1042.8-2088.5l0.1,11.6l-0.2,0.1l-0.1-11.7L-1042.8-2088.5z"/>
								<path id="path4634-0-1-1-2-0-1-0-6-9-6_1_" class="st4" d="M-1042.3-2088.1l0.1,10.4l-0.2,0.1l-0.1-10.5L-1042.3-2088.1z"/>
								<path id="path4634-0-1-1-2-0-1-8-3-4_1_" class="st4" d="M-1041.9-2087.7l0.1,9.2l-0.2,0.1l-0.1-9.3L-1041.9-2087.7z"/>
								<path id="path4634-0-1-1-2-0-1-5-4-4_1_" class="st4" d="M-1041.4-2087.4l0,8.2l-0.2,0l0-8.3L-1041.4-2087.4z"/>
								<path id="path4634-0-1-1-2-0-1-81-29-0-4-9-3_1_" class="st4" d="M-1037.8-2088l0.1,2h-0.2l-0.1-2.1L-1037.8-2088z"/>
								<path id="path4634-0-1-1-2-0-1-81-29-0-0-5_1_" class="st4" d="M-1038.2-2087.8l0.1,2.5h-0.2l-0.1-2.5H-1038.2z"/>
								<path id="path4634-0-1-1-2-0-1-81-29-5-8_1_" class="st4" d="M-1038.6-2087.6l0.1,3.1l-0.2,0l-0.1-3.1H-1038.6z"/>
								<path id="path4634-0-1-1-2-0-1-81-66-3-4_1_" class="st4" d="M-1039-2087.4l0.1,3.7l-0.2,0l-0.1-3.7H-1039z"/>
								<path id="path4634-0-1-1-2-0-1-81-6-9-1_1_" class="st4" d="M-1039.5-2087.3l0.1,4.2l-0.2,0l-0.1-4.2H-1039.5z"/>
								<path id="path4634-0-1-1-2-0-1-81-24-1-0_1_" class="st4" d="M-1039.9-2087.2l0.1,4.9l-0.2,0l-0.1-5L-1039.9-2087.2z"/>
								<path id="path4634-0-1-1-2-0-1-81-3-2-3_1_" class="st4" d="M-1040.2-2087.1l0.1,5.6l-0.2,0l-0.1-5.7L-1040.2-2087.1z"/>
								<path id="path4634-0-1-1-2-0-1-81-2-8-3_1_" class="st4" d="M-1040.6-2087.1l0.1,6.4l-0.2,0l-0.1-6.4L-1040.6-2087.1z"/>
								<path id="path4634-0-1-1-2-0-1-81-8-4_1_" class="st4" d="M-1041-2087.2l0.1,7.3l-0.2,0l-0.1-7.3L-1041-2087.2z"/>
								<path id="path3024-3-4-0-5-3-0-1-6-2-8_1_" class="st17" d="M-1041.1-2074l-0.6-0.2l-1.4-0.9c-0.6,0.6-1.7,2.1-1.1,2.6
									c0.1,0.1,0.3,0.1,0.6,0.1c0.3,0,0.6-0.2,0.9-0.4c0.3-0.2,0.6-0.5,0.9-0.7C-1041.5-2073.7-1041.3-2074-1041.1-2074"/>
							</g>
						</g>
					</g>
				</g>
				<g id="g78883_1_" transform="translate(-544.93403,251.396)">
					<path id="path64764_1_" class="st18" d="M579-217.3c-0.2-0.1-0.2-0.1-0.3-0.2c-0.1-0.1-0.1-0.1-0.2-0.1c-0.1,0-0.3-0.2-0.3-0.2
						s-0.1,0-0.1-0.1c-0.1,0-0.1-0.1-0.2-0.1c-0.1-0.1-0.2-0.2-0.4-0.4c-0.3-0.3-0.5-0.5-0.6-0.8c-0.1-0.3-0.2-0.6-0.3-1.1
						c0-0.1-0.1-0.6-0.1-1c0-0.8,0-3.6,0-3.7c0,0,0.1,0,0.1,0.1c0.1,0.1,0.3,0.2,0.5,0.3c0.3,0.1,0.5,0.2,0.7,0.2
						c0.4,0.1,0.7,0.1,1.1,0c0.5-0.1,0.7-0.2,1.1-0.4c0.1,0,0.1-0.1,0.2-0.1c0,3.9,0,3.9,0,8.1c-0.1,0-0.2-0.1-0.3-0.1
						C579.6-217,579.3-217.1,579-217.3L579-217.3z"/>
					<g id="g29973-7_1_" transform="matrix(0.2176,0,0,0.253848,1096.44,547.586)">
						
							<rect id="rect29401-0_1_" x="-2374.7" y="-3035.3" transform="matrix(-6.107447e-03 1 -1 -6.107447e-03 -5424.4893 -679.1871)" class="st0" width="0" height="0"/>
						<path id="path9379-7-3_1_" class="st0" d="M-2377.4-3034.5C-2377.4-3034.5-2377.4-3034.6-2377.4-3034.5
							C-2377.3-3034.6-2377.3-3034.6-2377.4-3034.5c0.2-0.1,0.3-0.2,0.4-0.3c0.1-0.1,0.2-0.1,0.3-0.2c0.2-0.1,0.3-0.2,0.4-0.3
							c0.4-0.2,0.8-0.4,1.2-0.5c0.2,0,0.4,0,0.5,0c0,0,0.5,0,0.5,0l0,0c0,0.1,0,0.1,0,0.2c0,0.1,0,0.1,0,0.1l0,0c0,0,0,0-0.1,0
							c0,0-0.1,0.2-0.2,0.2c-0.4,0-0.5-0.2-0.9-0.1c-0.1,0-0.2,0-0.3,0c-0.1,0-0.2,0.1-0.3,0.1c-0.1,0-0.2,0.1-0.3,0.1
							c-0.2,0.1-0.4,0.2-0.6,0.3c-0.1,0.1-0.1,0.1-0.2,0.1c-0.2,0.1-0.4,0.2-0.5,0.2C-2377.3-3034.5-2377.3-3034.5-2377.4-3034.5
							L-2377.4-3034.5z"/>
						<g id="g5919-4_1_" transform="matrix(3.83783,0,0,3.74193,-962.708,-15.542)">
							<g id="g64-0_1_">
								<path id="path7155_12-0_1_" class="st19" d="M-368.4-804.2c0-0.1,0.1-0.2,0.1-0.3c0.1-0.3,0.1-1.2,0.1-1.4
									c0.1,0,0.1,0,0.2,0c0.1,0.2,0,1.1-0.1,1.4c0.1-0.3,0.2-1.1,0.1-1.4c0.1,0,0.1,0,0.2-0.1c0,0.3,0,1.2-0.2,1.5
									c-0.1,0.1-0.2,0.2-0.3,0.3C-368.3-804.2-368.3-804.2-368.4-804.2L-368.4-804.2z"/>
								<path id="path7155_13-5_1_" class="st19" d="M-368.9-804c0-0.1,0.1-0.3,0.2-0.4c0.2-0.4,0.2-0.8,0.2-1.2
									c0.1,0,0.2-0.1,0.2-0.1c0.1,0.3,0,0.9-0.2,1.2c0.2-0.3,0.3-0.9,0.2-1.2c0.1,0,0.2,0,0.3-0.1c0,0.4,0,0.9-0.3,1.3
									c-0.1,0.1-0.3,0.3-0.4,0.4C-368.8-804-368.9-803.9-368.9-804L-368.9-804z"/>
								<path id="path7155_14-3_1_" class="st19" d="M-369.7-804c0-0.1,0.2-0.3,0.3-0.4c0.3-0.4,0.5-0.9,0.6-1.3
									c0.1,0,0.2,0,0.3-0.1c0,0.4-0.2,0.9-0.6,1.3c0.3-0.3,0.5-0.9,0.6-1.3c0.1,0,0.1,0,0.2,0c-0.1,0.4-0.2,1-0.6,1.4
									c-0.1,0.1-0.3,0.2-0.5,0.3C-369.6-804-369.7-803.9-369.7-804L-369.7-804L-369.7-804L-369.7-804z"/>
								<path id="path7153_15-1_1_" class="st19" d="M-369.9-804.4c0-0.1,0.1-0.1,0.1-0.2c0.1-0.1,0.2-0.3,0.3-0.4s0.2-0.2,0.2-0.4
									c0-0.1,0.1-0.2,0.1-0.3c0,0,0.1-0.1,0.1-0.1c0,0,0.1,0,0.1,0c-0.1,0.3-0.3,0.8-0.6,1c0.3-0.2,0.5-0.6,0.6-1
									c0.1,0,0.1,0,0.2,0c-0.1,0.3-0.2,0.7-0.5,0.9C-369.4-804.7-369.6-804.5-369.9-804.4C-369.9-804.4-369.9-804.4-369.9-804.4
									L-369.9-804.4L-369.9-804.4z"/>
								<path id="path7155_16-0_1_" class="st19" d="M-370.3-804.9c0.1-0.1,0.2-0.2,0.3-0.2c0.3-0.2,0.6-0.6,0.8-0.8
									c0.1,0,0.1,0,0.2,0c-0.2,0.3-0.5,0.6-0.8,0.8c0.3-0.2,0.6-0.6,0.8-0.8c0.1,0,0.1,0,0.2,0.1c-0.2,0.3-0.3,0.5-0.6,0.7
									c-0.1,0.1-0.2,0.2-0.3,0.2c-0.1,0.1-0.3,0.1-0.5,0.1C-370.3-804.9-370.4-804.9-370.3-804.9L-370.3-804.9L-370.3-804.9z"/>
								<path id="path7155_17-6_1_" class="st19" d="M-370.5-805.3c0.1-0.1,0.2-0.1,0.3-0.2c0.3-0.2,0.6-0.5,0.9-0.7
									c0.1,0,0.1,0,0.2,0c-0.2,0.2-0.5,0.6-0.8,0.7c0.3-0.1,0.6-0.5,0.8-0.7c0.1,0,0.1,0,0.2,0.1c-0.2,0.2-0.4,0.4-0.6,0.6
									c-0.1,0.1-0.2,0.1-0.3,0.2c-0.1,0-0.3,0-0.5,0.1C-370.5-805.3-370.5-805.3-370.5-805.3L-370.5-805.3L-370.5-805.3z"/>
								<path id="path7155_18-7_1_" class="st19" d="M-370.7-805.9c0.1,0,0.3-0.1,0.3-0.1c0.3-0.1,0.6-0.2,0.9-0.4
									c0,0,0.1,0.1,0.1,0.1c-0.2,0.2-0.6,0.4-0.9,0.4c0.3-0.1,0.6-0.2,0.9-0.4c0.1,0,0.1,0,0.2-0.1c0,0,0,0.1,0.1,0.1
									c-0.3,0.2-0.7,0.5-1.1,0.5c-0.1,0-0.3,0-0.4-0.1C-370.6-805.8-370.7-805.9-370.7-805.9L-370.7-805.9L-370.7-805.9
									L-370.7-805.9z"/>
								<path id="path7155_19-5_1_" class="st19" d="M-370.6-806.5c0.1,0,0.2,0,0.2,0c0.4,0.1,0.7,0,1-0.1c0,0.1,0,0.1,0.1,0.2
									c-0.3,0.1-0.6,0.1-0.9,0.1c0.3,0,0.6,0,0.9-0.1c0,0,0.1,0.1,0.2,0.1c-0.4,0.1-0.8,0.3-1.2,0.1
									C-370.3-806.3-370.4-806.3-370.6-806.5C-370.6-806.4-370.6-806.5-370.6-806.5L-370.6-806.5L-370.6-806.5z"/>
								<path id="path7155_20-0_1_" class="st19" d="M-370.4-806.9c0.1,0,0.1,0,0.2,0c0.3,0.1,0.6,0.1,0.9,0.1v0c0,0,0,0.1,0.1,0.1
									c-0.3,0-0.5,0-0.8-0.1c0.3,0.1,0.6,0.1,0.8,0.1c0,0,0.1,0.1,0.1,0.1c-0.4,0-0.7,0.1-1-0.1
									C-370.2-806.7-370.3-806.7-370.4-806.9C-370.4-806.8-370.4-806.9-370.4-806.9L-370.4-806.9L-370.4-806.9L-370.4-806.9z"/>
								<path id="path7153_21-0_1_" class="st19" d="M-370.2-807.2c0.1,0,0.1,0,0.2,0.1c0.1,0,0.2,0,0.3,0.1
									c0.1,0.1,0.5,0.2,0.6,0.3c0,0-0.1,0-0.1,0.1c-0.3,0-0.6-0.1-0.7-0.3c0.2,0.1,0.5,0.2,0.7,0.3c0,0,0,0,0,0
									c-0.3,0-0.5-0.1-0.7-0.2C-370-807-370.1-807-370.2-807.2C-370.2-807.2-370.2-807.2-370.2-807.2L-370.2-807.2L-370.2-807.2z"
									/>
								<path id="path7153_22-4_1_" class="st19" d="M-370.1-807.4c0.1,0,0.1,0,0.2,0.1c0.1,0,0.2,0.1,0.3,0.1
									c0.1,0.1,0.5,0.3,0.6,0.3c0,0-0.1,0-0.1,0c-0.3-0.1-0.5-0.2-0.7-0.3c0.2,0.2,0.5,0.3,0.7,0.3c0,0,0,0.1,0,0.1
									c-0.3-0.1-0.5-0.1-0.7-0.3C-369.9-807.2-370-807.3-370.1-807.4C-370.1-807.4-370.1-807.4-370.1-807.4L-370.1-807.4
									L-370.1-807.4z"/>
								<path id="path7153_23-5_1_" class="st19" d="M-369.9-807.6c0,0,0.1,0.1,0.1,0.1c0.1,0.1,0.2,0.1,0.3,0.2
									c0.1,0.1,0.4,0.3,0.5,0.4c0,0-0.1,0-0.1,0c-0.2-0.1-0.5-0.2-0.6-0.4c0.2,0.2,0.4,0.3,0.6,0.4c0,0,0,0.1,0,0.1
									c-0.2-0.1-0.4-0.2-0.6-0.4C-369.9-807.4-369.9-807.4-369.9-807.6C-370-807.6-370-807.7-369.9-807.6L-369.9-807.6
									L-369.9-807.6z"/>
								<path id="path7153_24-4_1_" class="st19" d="M-369.7-807.9c0,0,0,0.1,0.1,0.1c0.1,0.1,0.1,0.1,0.2,0.2
									c0.1,0.1,0.2,0.4,0.3,0.6c0,0-0.1,0-0.1,0c-0.2-0.2-0.4-0.4-0.5-0.6c0.1,0.2,0.3,0.4,0.5,0.6c0,0,0,0.1,0,0.1
									c-0.2-0.2-0.4-0.3-0.5-0.5C-369.7-807.6-369.8-807.7-369.7-807.9C-369.7-807.9-369.7-808-369.7-807.9L-369.7-807.9
									L-369.7-807.9z"/>
								<path id="path7151_25-9_1_" class="st19" d="M-369.3-808.2c-0.1,0.1-0.1,0.3-0.1,0.5c0,0.1,0.1,0.2,0.2,0.3
									c0,0.1,0.1,0.1,0.1,0.2c0,0,0,0.1,0,0.1c0,0,0,0,0,0c0,0-0.1,0-0.1,0c-0.1-0.2-0.3-0.4-0.3-0.6c0,0.2,0.1,0.4,0.3,0.6
									c0,0,0.1,0,0.1,0l0,0.1c-0.1-0.1-0.3-0.3-0.4-0.5C-369.6-807.7-369.6-808-369.3-808.2L-369.3-808.2L-369.3-808.2
									L-369.3-808.2z"/>
								<g id="g80-4-5_1_">
									<path id="path7151_26-6_1_" class="st19" d="M-369-807.3c-0.1,0-0.2-0.1-0.2-0.2c0,0-0.2-0.2,0-0.4c0,0.1,0,0.2,0.1,0.3
										c0,0.1,0.1,0.1,0.2,0.1C-368.9-807.4-368.9-807.4-369-807.3L-369-807.3L-369-807.3L-369-807.3L-369-807.3z"/>
								</g>
							</g>
							<g id="g84-8_1_">
								<path id="_38899352-2_1_" class="st19" d="M-368.8-805.7c-0.1,0.3,0.2,0.4,0.4,0.2c0.1,0.3,0.4,0.2,0.4,0l-0.1-0.2
									c0.1-0.1,0.2-0.3,0.3-0.4l-0.1-0.1c-0.1,0-0.2,0.1-0.4,0.1c-0.1,0-0.2-0.1-0.2-0.2c-0.2-0.4-0.1-0.7-0.1-0.8
									c0.1-0.4-0.4-0.5-0.4-0.7c0,0.1-0.1,0.1,0,0.2c-0.1,0-0.2,0.1-0.2,0.3c-0.1,0-0.2,0-0.2,0.1c-0.1,0.1-0.1,0.3,0.1,0.4
									c0,0-0.1,0-0.1,0.1c-0.1,0.1,0,0.3,0.2,0.4c-0.3,0.2,0,0.4,0.2,0.4C-369.3-805.8-369.1-805.6-368.8-805.7L-368.8-805.7
									L-368.8-805.7L-368.8-805.7z"/>
							</g>
						</g>
						<path id="path3043-4_1_" class="st0" d="M-2379.6-3021.5c-0.2,0-0.4,0-0.6,0c-0.2-0.1-0.4-0.5-0.6-0.6c-0.2-0.1-0.4,0-0.4,0.1
							c-0.1,0.2,0,0.3,0.1,0.4c0.1,0,0.2,0,0.3,0c0.1,0,0.1,0.1,0.2,0.2c0.1,0,0.1,0.1,0.2,0.1
							C-2380.1-3021.2-2379.8-3021.4-2379.6-3021.5L-2379.6-3021.5z"/>
						<path id="path3035-9-5_1_" class="st0" d="M-2380.6-3021c-0.4,0.1-0.7,0.1-0.8,0.2c-0.1,0.1-0.1,0.3,0,0.5
							c0.1,0.1,0.2,0.2,0.4,0.1c0.2-0.1,0.3-0.5,0.5-0.5c0.2-0.1,0.4,0,0.6,0c0.2,0,0.4,0,0.6-0.2c0.1,0,0.2,0,0.3,0.1
							c0.1,0.1,0.1,0.3,0.2,0.3s0.4,0,0.5-0.1c0.1-0.2,0.1-0.5-0.2-0.6c-0.1-0.1-0.5,0-0.7,0c0.5-0.2,1.4-0.4,2-0.7
							c0.1-0.1,0.6,0.1,0.8,0l1.1-0.7l-1.1-0.6l-0.7,0.5c-0.7,0.4-1.6,0.7-2.6,1.1c-0.5,0.2-0.7,0.2-0.9,0.2
							c-0.3-0.1-0.6-0.3-0.7-0.2l-0.2,0.3c0.1,0.2,0.2,0.4,0.6,0.1c0,0,0,0,0,0C-2380.8-3021-2380.7-3021-2380.6-3021L-2380.6-3021z
							"/>
						<path id="path3441-7-7_1_" class="st0" d="M-2381.2-3022.2c-0.3-0.1-0.6,0.1-0.4,0.4c0-0.2,0.3-0.2,0.4,0
							c0.1,0,0.2-0.1,0.2-0.2C-2381-3022.1-2381.1-3022.2-2381.2-3022.2L-2381.2-3022.2z M-2378.1-3020.9c-0.1,0-0.2,0-0.3,0
							c-0.2,0.1-0.2,0.3-0.1,0.4c0.2-0.1,0.5,0.1,0.4,0.3c0.3-0.1,0.3-0.3,0.3-0.5C-2377.9-3020.8-2378-3020.8-2378.1-3020.9
							L-2378.1-3020.9L-2378.1-3020.9z M-2381.4-3021.6C-2381.5-3021.6-2381.5-3021.6-2381.4-3021.6c-0.2-0.1-0.3-0.1-0.4,0
							c-0.2,0.1-0.2,0.4,0,0.5c0-0.2,0.3-0.3,0.5-0.1c0.1,0,0.2-0.2,0.2-0.3C-2381.3-3021.5-2381.4-3021.6-2381.4-3021.6z
							 M-2381.3-3020.7c-0.2,0-0.4,0.1-0.5,0.3c-0.1,0.2,0,0.4,0.2,0.5c-0.1-0.2,0.1-0.4,0.4-0.3
							C-2381.1-3020.4-2381.1-3020.6-2381.3-3020.7L-2381.3-3020.7z"/>
						<path id="path4215-3_1_" class="st19" d="M-2372.1-3032.7c-0.1,0.3-0.2,0.3-0.3,0c-0.1-0.3,0-0.5-0.3-0.8c0.1-0.1,0.1,0,0.2,0
							c-0.2-0.1-0.3-0.3-0.3-0.4c0.2,0.1,0.4,0.1,0.5-0.2c-0.1,0.1-0.2,0.1-0.3,0.1c-0.1-0.1-0.2-0.2-0.2-0.4c0-0.2,0-0.3-0.1-0.6
							c0.1,0,0.1,0,0.2,0c-0.1-0.1-0.3-0.2-0.4-0.3c0-0.2-0.1-0.4-0.2-0.6c0.2,0,0.2,0.1,0.3,0.1c-0.2-0.3-0.5-0.6-0.8-0.8
							c0.2-0.1,0.2-0.1,0.3-0.2c-0.1,0-0.4,0.1-0.5,0.1c-0.4,0-0.5,0-0.9-0.1c-0.4,0-0.6,0-0.9,0.3l0.2,0.2l0.4,0.6
							c0.1,0,0.7,0,0.6,0.4l-0.2,0.2c0.6,0,0.2,1.1-0.3,0.8c0.1,0.3,0.3,0.4,0.5,0.3c-0.1,0.1-0.1,0.2-0.1,0.3
							c-0.1,0.1-0.2,0.2-0.2,0.3c0,0-0.1,0.1-0.2,0c0.1,0.1,0.2,0.1,0.3,0.1c0.1,0,0.1-0.1,0.1-0.1c-0.2,0.1-0.6,0.8-0.6,1
							c0,0.1,0,0.2,0,0.3c0,0.2-0.1,0.3-0.2,0.4c0.1,0,0.3,0,0.3-0.1s0.1-0.1,0.1-0.3c0,0.1,0,0.2-0.1,0.3c0,0,0,0,0,0
							c-0.1,0.1-0.3,0.3-0.2,0.5c0,0,0.1-0.1,0.1-0.1c0,0,0.1-0.1,0.1-0.1c0,0.1,0,0.1-0.1,0.2c0,0.2,0,0.4,0.1,0.6
							c0,0,0.1,0,0.1-0.1c0-0.1,0.1-0.1,0.1-0.2c0,0.1,0,0.3,0,0.4c-0.3,0.5-0.1,0.8,0.1,1.5c0.2,0.6,0.6,1.6,0.7,2.8
							c-0.6,0.2-0.5,0.6-0.9,1.2c-0.4,0.3-0.6,0.8-0.9,1.1c-0.2,0.2-0.4,0.5-0.6,0.6c-0.1,0.1-0.2,0.2-0.4,0.2
							c-0.3,0.1-0.6,0.2-1-0.1c0.2,0.2,0.4,0.4,0.7,0.5c-0.1,0.1-0.2,0.2-0.2,0.3c0.2,0,0.5-0.1,0.6-0.2c-0.2,0.1-0.3,0.3-0.4,0.4
							c0.3,0.1,0.5-0.1,0.9-0.3c-0.1,0.1-0.3,0.6-0.3,0.7c0.1-0.1,0.3-0.4,0.5-0.4c-0.1,0.2-0.2,0.5-0.1,0.7c0.4-0.7,1.5-1,2-1.7
							c0,0.1,0,0.2-0.1,0.4c0.2-0.1,0.3-0.3,0.4-0.5c0.3,0,0.3-0.1,0.5-0.3c-0.2,1.3-0.2,1.7-1.5,2.5c-0.2-0.2-0.5-0.1-0.7-0.1
							c0.2,0,0.4,0,0.5,0.2l-0.6,0.3c-0.3-0.2-0.6-0.3-1-0.3c0.3,0.1,0.6,0.1,0.7,0.5c-1,0.6-2.1,1.1-2.6,2.3
							c-0.3,0.3-0.6-0.2-0.7-0.4c0.2,0.4,0.3,0.9,0.8,0.9c0.5,0.7,1.3,0.6,1.7-0.2c0.2-0.1,0.5-0.1,0.7-0.1
							c-0.2-0.1-0.4-0.1-0.6-0.1c0.2-0.2,0.4-0.4,0.5-0.6c-0.2,0.1-0.4,0.2-0.6,0.5c0-0.2-0.1-0.3-0.2-0.5c0,0.2,0.1,0.4,0,0.6
							c-0.8,1.4-2-0.4,0.1-1.3l0.1,0.5c0.2-0.4,0.4-0.8,1-1.1c0,0.4,0.1,0.6,0.2,0.9c0-0.3-0.1-0.7,0.1-1l1.5-0.8
							c0.1,0.2,0,0.3,0,0.5c0.2-0.2,0.4-0.4,0.4-0.6c0.2-0.2,0.3-0.2,0.5-0.4c-0.1,0.7,0,1-0.6,1.2c-0.2-0.1-0.4-0.1-0.6,0
							c0.1,0,0.3,0,0.3,0.1c-0.4,0.3-1.6,0.7-1.1,1.4c0.3,0.2,0.4,0.1,0.6,0.1c-0.2,0-0.6-0.1-0.5-0.4c0.2-0.3,0.5-0.5,0.8-0.6
							l0.9-0.2c-0.4,0.6-0.6,1.1-1.3,1.6c-0.7,0.4-1.7,0.6-1.8,1.2s0.2,1.1,0.6,1.1c0.7-0.1,0.6-0.4,0.8-0.6
							c0.2-0.1,0.5-0.2,0.6-0.3c-0.3,0-0.5,0-0.8,0.1c0-0.3-0.1-0.4-0.3-0.6c0,0.2,0.1,0.5,0,0.7c-0.1,0.2-0.2,0.3-0.3,0.2
							c-0.5-0.1-0.4-0.6-0.4-0.6c0.3-0.6,0.8-0.5,1.3-0.8c0.1,0.2-0.1,0.5-0.1,0.7c0.3-0.2,0.5-0.6,0.6-0.8c-0.1,0.2,0,0.4,0.1,0.6
							c0-0.3,0.1-0.7,0.4-0.7c0.3-0.1,0.7-0.2,0.8-0.4l-0.1,0.6c0,0.9-0.6,1.5-1.4,1.9c-0.2,0.1-0.4,0-0.5,0c0,0.1,0.2,0.2,0.4,0.2
							c-0.1,0.2-0.1,0.4,0.1,0.6c0.2,0.3,0.7,0,0.7-0.3c-0.3,0.5-0.7,0.1-0.5-0.3c0.2-0.2,0.6-0.2,0.8-0.4c0.2,0.2,0,0.4,0,0.6
							c0.2-0.3,0.3-0.5,0.2-0.7c0.3-0.2,0.3-0.3,0.5-0.5c0.1,1-0.5,1.4-0.5,1.8c0.1-0.1,0.4-0.4,0.6-0.4c-0.4,0.8-0.4,1.2,0.4,1.8
							l0,0c0.8-0.6,0.8-1,0.4-1.8c0.2,0,0.5,0.3,0.6,0.4c0-0.4-0.6-0.8-0.5-1.8c0.1,0.2,0.2,0.3,0.5,0.5c-0.1,0.3,0,0.5,0.2,0.7
							c0-0.2-0.1-0.5,0-0.6c0.2,0.2,0.6,0.2,0.8,0.4c0.2,0.4-0.2,0.7-0.5,0.3c0,0.4,0.5,0.6,0.7,0.3c0.2-0.2,0.1-0.4,0.1-0.6
							c0.2,0.1,0.4-0.1,0.4-0.2c-0.1,0-0.3,0.1-0.5,0c-0.8-0.4-1.4-1-1.4-1.9l-0.1-0.6c0.1,0.2,0.5,0.3,0.8,0.4
							c0.3,0,0.3,0.5,0.4,0.7c0.1-0.2,0.1-0.4,0.1-0.6c0.1,0.3,0.3,0.6,0.6,0.8c0-0.2-0.2-0.5-0.1-0.7c0.4,0.3,1,0.2,1.3,0.8
							c0,0,0.1,0.6-0.4,0.6c-0.1,0-0.3,0-0.3-0.2c-0.1-0.2,0-0.5,0-0.7c-0.1,0.1-0.3,0.2-0.3,0.6c-0.3-0.2-0.5-0.1-0.8-0.1
							c0.2,0.1,0.5,0.2,0.6,0.3c0.2,0.2,0.1,0.5,0.8,0.6c0.4,0,0.8-0.5,0.6-1.1c-0.2-0.6-1.1-0.8-1.8-1.2c-0.7-0.5-0.9-1-1.3-1.6
							l0.9,0.2c0.3,0.1,0.7,0.3,0.8,0.6c0.1,0.3-0.2,0.4-0.5,0.4c0.2,0,0.3,0.2,0.6-0.1c0.5-0.7-0.7-1.2-1.1-1.4
							c0.1-0.1,0.2-0.1,0.3-0.1c-0.2-0.1-0.4-0.1-0.6,0c-0.5-0.2-0.5-0.5-0.6-1.2c0.1,0.2,0.2,0.2,0.5,0.4c0,0.3,0.2,0.5,0.4,0.6
							c-0.1-0.2-0.1-0.4,0-0.5l1.5,0.8c0.2,0.3,0.1,0.7,0.1,1c0.2-0.2,0.3-0.5,0.2-0.9c0.6,0.3,0.8,0.6,1,1.1l0.1-0.5
							c2.1,0.8,0.9,2.7,0.1,1.3c0-0.2,0-0.4,0-0.6c-0.1,0.2-0.2,0.3-0.2,0.5c-0.2-0.3-0.4-0.3-0.6-0.5c0.1,0.3,0.3,0.5,0.5,0.6
							c-0.3,0-0.4,0-0.6,0.1c0.3,0,0.5-0.1,0.7,0.1c0.4,0.7,1.2,0.9,1.7,0.2c0.6,0,0.7-0.4,0.8-0.9c-0.2,0.2-0.5,0.7-0.7,0.4
							c-0.5-1.3-1.6-1.7-2.6-2.3c0.1-0.3,0.4-0.3,0.7-0.5c-0.4,0-0.7,0-1,0.3l-0.6-0.3c0.1-0.2,0.3-0.2,0.5-0.2
							c-0.3-0.1-0.6-0.1-0.7,0.1c-1.3-0.7-1.3-1.2-1.5-2.5c0.1,0.2,0.3,0.2,0.5,0.3c0.1,0.2,0.3,0.4,0.4,0.5
							c-0.1-0.1-0.1-0.2-0.1-0.4c0.6,0.7,1.7,1,2,1.7c0-0.2,0-0.5-0.1-0.7c0.2,0,0.4,0.3,0.5,0.4c0-0.1-0.2-0.6-0.3-0.7
							c0.3,0.3,0.6,0.4,0.9,0.3c-0.1-0.1-0.2-0.3-0.4-0.4c0.2,0.1,0.4,0.2,0.6,0.2c0-0.1-0.1-0.2-0.2-0.3c0.3,0,0.6-0.2,0.7-0.5
							c-0.5,0.2-0.7,0.1-1,0.1c-0.1-0.1-0.2-0.1-0.4-0.2c-0.3-0.2-0.4-0.4-0.6-0.6c-0.3-0.3-0.6-0.8-0.9-1.1c-0.4-0.6-0.3-1-0.9-1.2
							c0.1-1.2,0.5-2.1,0.7-2.8c0.2-0.7,0.5-1,0.1-1.5c0-0.1,0-0.3,0-0.4c0,0.1,0,0.2,0.1,0.2c0,0,0,0.1,0.1,0.1
							c0.1-0.2,0.2-0.4,0.1-0.6c0-0.1,0-0.1-0.1-0.2c0,0,0.1,0.1,0.1,0.1c0,0,0.1,0.1,0.1,0.1c0.1-0.2-0.1-0.3-0.2-0.5c0,0,0,0,0,0
							c-0.1-0.1-0.1-0.2-0.1-0.3c0,0.1,0.1,0.2,0.1,0.3s0.2,0.1,0.3,0.1c-0.1-0.1-0.2-0.2-0.2-0.4c0-0.1,0-0.2,0-0.3
							c0-0.2-0.5-0.9-0.6-1c0,0,0.1,0.1,0.1,0.1c0.1,0.1,0.2,0,0.3-0.1c-0.1,0-0.2,0-0.2,0c0-0.1-0.1-0.2-0.2-0.3
							c0-0.1,0-0.2-0.1-0.3c0.2,0.1,0.4,0,0.5-0.3c-0.6,0.3-1-0.8-0.3-0.8l-0.2-0.2c-0.2-0.4,0.5-0.3,0.6-0.4l0.4-0.6l0.2-0.2
							c-0.3-0.3-0.4-0.3-0.7-0.3c-0.5,0.1-0.7,0-1,0.1c-0.1,0-0.3,0-0.4-0.1c0,0.1,0.1,0.1,0.3,0.2c-0.4,0.2-0.7,0.5-0.8,0.7
							c0.1,0,0.1-0.1,0.3-0.1c-0.1,0.2-0.3,0.4-0.3,0.6c-0.1,0.1-0.3,0.2-0.4,0.3c0.1,0,0.1,0,0.2,0c-0.1,0.2-0.1,0.3-0.1,0.6
							c0,0.2,0,0.3-0.2,0.4c-0.1,0-0.2,0-0.3-0.1c0.1,0.3,0.2,0.4,0.5,0.2c-0.1,0.2-0.2,0.3-0.3,0.4c0.1,0,0.1,0,0.2,0
							C-2372.1-3033.2-2372-3033-2372.1-3032.7L-2372.1-3032.7L-2372.1-3032.7z"/>
						<path id="path4489-1_1_" class="st19" d="M-2373.5-3023.8L-2373.5-3023.8L-2373.5-3023.8z"/>
						<path id="path4523-7_1_" class="st19" d="M-2374.7-3030.2L-2374.7-3030.2L-2374.7-3030.2z"/>
						<path id="path4529-0_1_" class="st19" d="M-2374.3-3028.1L-2374.3-3028.1L-2374.3-3028.1z"/>
						<path id="path4390-5_1_" class="st19" d="M-2371.1-3024.3c0,0.1,0,0.2,0.2,0.3C-2371-3024.1-2371.1-3024.2-2371.1-3024.3z"/>
						<path id="path4394-7_1_" class="st19" d="M-2371-3023.8L-2371-3023.8L-2371-3023.8z"/>
						<path id="path4402-9_1_" class="st19" d="M-2369.8-3030.2L-2369.8-3030.2L-2369.8-3030.2z"/>
						<path id="path4404-3_1_" class="st19" d="M-2370.6-3027.3L-2370.6-3027.3L-2370.6-3027.3z"/>
						<path id="path4406-0_1_" class="st19" d="M-2370.3-3028.1L-2370.3-3028.1L-2370.3-3028.1z"/>
						<path id="path7068-6_1_" class="st20" d="M-2371.2-3035.9L-2371.2-3035.9L-2371.2-3035.9z"/>
						<path id="path7082-6_1_" class="st20" d="M-2373.7-3032.2L-2373.7-3032.2L-2373.7-3032.2z"/>
						<path id="path7084-6_1_" class="st20" d="M-2373.7-3033.3L-2373.7-3033.3L-2373.7-3033.3z"/>
						<path id="path7096-9_1_" class="st20" d="M-2373.2-3034.5L-2373.2-3034.5L-2373.2-3034.5z"/>
						<path id="path7098-1_1_" class="st20" d="M-2374.2-3033.7L-2374.2-3033.7L-2374.2-3033.7z"/>
						<path id="path7100-6_1_" class="st20" d="M-2374.2-3034.9L-2374.2-3034.9L-2374.2-3034.9z"/>
						<path id="path7102-2_1_" class="st20" d="M-2373.3-3035.9L-2373.3-3035.9L-2373.3-3035.9z"/>
						<path id="path7204-7_1_" class="st19" d="M-2375.8-3036.5c-0.4,0-1,0.4-0.5,0.7c0-0.1,0-0.1,0-0.2c0-0.1,0.1-0.1,0.2-0.1
							c0.1,0,0.3,0.1,0.5,0.2c0.2,0.1,0.5,0.1,0.7,0.2C-2374.9-3035.8-2375.6-3036.1-2375.8-3036.5L-2375.8-3036.5L-2375.8-3036.5
							L-2375.8-3036.5z"/>
						<path id="path29377-1_1_" class="st0" d="M-2374.9-3035.4c-0.2,0-0.4,0.2-0.6,0.2s-0.4,0.1-0.5,0.1c0,0.1,0.1,0.2,0.2,0.2
							c0.1,0,0.2,0,0.3,0l0.3-0.1c0.1,0,0.2-0.1,0.3-0.1l0.2-0.3c0,0,0,0-0.1,0C-2374.8-3035.4-2374.9-3035.4-2374.9-3035.4z"/>
					</g>
					<path id="path64764-5_2_" class="st21" d="M580.2-216.7c0,0,0.1,0,0.1-0.1c0.1,0,0.2-0.1,0.2-0.1l0.1-0.1
						c0.6-0.3,1-0.5,1.4-0.7s0.6-0.4,0.9-0.7c0.6-0.5,0.8-1,0.9-1.9c0-0.1,0-0.6,0-1c0-0.8,0-3.6,0-3.6c0,0-0.1,0-0.1,0.1
						c-0.1,0.1-0.3,0.2-0.5,0.3c-0.2,0.1-0.5,0.2-0.7,0.2c-0.3,0.1-0.8,0.1-1.1,0c-0.5-0.1-0.9-0.2-1.1-0.4l-0.2-0.1"/>
					<g>
						<path id="path2201-2_2_" class="st4" d="M582.2-220.9l0.2-0.2l-1.7-2.7l-0.3-0.2l0.1,0.4L582.2-220.9z"/>
						<path id="path26736-3_2_" class="st4" d="M580.2-222.2c0.3-0.1,0.4,0.2,0.5,0.5c0,0,0,0.1,0,0.1l-0.2,0.6
							c-0.1,0.1-0.1,0.3-0.2,0.4c0-0.2,0-0.2-0.1-0.4L580.2-222.2z"/>
						<path id="path5796-9-2_2_" class="st4" d="M582.3-221l0.2-0.1c0,0,0,0.1,0,0.1c0,0.1,0.2,0.5,0.3,0.8c0,0.1,0.1,0.1,0,0.1
							c-0.1,0.1-0.1,0.1-0.2,0c-0.1-0.2-0.3-0.6-0.4-0.6c0,0,0,0-0.1,0L582.3-221z"/>
						<path id="path34841-7_2_" class="st4" d="M582.6-221.4C582.6-221.4,582.6-221.4,582.6-221.4c0.1,0.1,0.1,0.2,0,0.2
							c0,0.1-0.1,0-0.1,0c0,0,0,0,0,0c0,0,0,0,0,0l0,0l-0.1,0.2c0,0,0,0,0,0v0.1h-0.1l0,0l-0.2,0.3c0,0.1-0.1,0-0.1,0
							c0-0.1,0-0.1,0-0.2c0-0.1,0.1,0,0.1,0c0,0,0,0,0,0c0,0,0,0,0,0l0,0l0.1-0.2c0,0,0,0,0,0v-0.1h0.1l0,0L582.6-221.4L582.6-221.4
							C582.6-221.4,582.6-221.4,582.6-221.4L582.6-221.4L582.6-221.4z"/>
						<path id="path5806-8-0_2_" class="st4" d="M582.5-221.1L582.5-221.1L582.5-221.1L582.5-221.1L582.5-221.1L582.5-221.1
							L582.5-221.1L582.5-221.1L582.5-221.1C582.6-221.1,582.6-221.1,582.5-221.1L582.5-221.1L582.5-221.1L582.5-221.1L582.5-221.1
							L582.5-221.1L582.5-221.1l0.2,0.1v0l0,0c0,0,0,0.1,0,0.1v0h0v0l0,0c0,0,0,0,0,0l0,0c0,0,0,0,0,0l0,0c0,0,0,0,0,0.1l0,0v0l0,0
							l0,0l0,0l0,0l0,0v0l0,0c0,0,0,0,0,0.1l0,0l0,0l0,0l0,0v0l0,0l0,0l0,0l0,0l0,0l0,0l0,0c0,0-0.1,0.1-0.1,0l0,0l0,0l0,0v0v0l0,0
							v0h0c0,0-0.1,0-0.1,0l0,0v0l0,0c0,0,0,0,0,0v0l0,0c0,0,0,0,0,0v0l0,0l0,0v0v0l0,0c0,0,0,0,0-0.1l0,0l0-0.1h0c0,0,0,0,0,0
							s0,0,0,0c0,0.1,0,0,0,0.1c0,0,0,0,0,0l0,0v0.1l0,0c0,0,0,0,0,0s0,0,0,0.1c0,0,0,0,0,0v0c0,0,0.1,0.2,0.1,0.2
							c0,0.1-0.1,0.2-0.2,0.2l-0.1,0.1c-0.1,0-0.1,0.1-0.1,0c-0.1-0.1-0.1-0.3,0-0.5c0,0,0,0,0,0c0-0.1,0.1-0.2,0.1-0.3c0,0,0,0,0,0
							l0,0v0l0,0l0,0l0,0l0,0l0,0c0,0,0,0,0,0l0,0l0,0c0,0,0,0,0,0v0l0,0l0,0h0l0,0l0,0l0,0l0,0L582.5-221.1L582.5-221.1z"/>
						<path id="path10992-1_2_" class="st4" d="M580.8-221.6c0.1,0.1,0.1,0.5,0.2,0.7l0,0c0,0.1,0,0.1,0.1,0.2c0,0,0,0,0,0v0
							c0,0,0,0,0,0c0,0,0,0.1,0,0.1c0,0,0,0.1,0,0.1c0,0,0.1,0,0.1,0c0,0.1,0.1,0.3,0.1,0.4l0,0c0,0,0,0,0,0l0,0
							c0-0.1,0.1-0.2,0.1-0.2c0,0,0,0,0,0l0,0l0,0l0,0c0,0,0.1,0,0.1,0.1c0.2-0.1,0.5-0.2,0.6-0.3c0,0,0,0,0,0
							c-0.1,0.1,0,0.4,0.1,0.5l0,0c0,0,0,0,0,0c0,0,0,0,0,0c0,0-0.1,0.1-0.2,0.1c-0.1,0.1-0.2,0.2-0.3,0.3c0,0-0.1,0.1-0.1,0.1
							c0,0.1,0,0.2-0.1,0.2c-0.1,0-0.2,0-0.3,0c-0.1,0.1-0.1,0.1-0.2,0.1c0,0,0,0,0,0c0,0,0,0,0,0c-0.1-0.1-0.1-0.2-0.2-0.3l0,0
							c-0.1,0-0.2-0.2-0.2-0.3c0,0,0-0.1,0-0.1c0,0-0.1-0.1-0.1-0.1c0,0,0,0-0.1,0c0,0,0,0,0-0.1c0-0.1-0.1-0.2-0.1-0.3
							c0,0,0,0.1,0,0.1l0,0l0,0l0,0l0,0l0,0c0,0-0.1,0-0.1-0.1c0-0.1,0-0.1,0-0.2h0c0,0,0,0-0.1-0.1
							C580.5-220.9,580.6-221.3,580.8-221.6C580.7-221.6,580.7-221.6,580.8-221.6L580.8-221.6z"/>
						<path id="path2210-7_2_" class="st4" d="M582.9-220.2c-0.1-0.1-0.2-0.1-0.2-0.1c-0.1,0.1-0.1,0.2,0,0.3
							c0.1,0.1,0.2,0.1,0.2,0.1C582.9-220,582.9-220.1,582.9-220.2L582.9-220.2L582.9-220.2z"/>
					</g>
				</g>
				<g>
					<path class="st4" d="M24.5,29.4c0.1,0.1,0.2,0.3,0.3,0.5c0.1,0.2,0.2,0.3,0.4,0.4c0,0,0,0,0,0c0,0,0,0-0.1,0
						c-0.1,0-0.2,0-0.2,0c-0.1,0-0.2-0.1-0.3-0.2c-0.1-0.2-0.3-0.4-0.4-0.6c-0.1-0.1-0.1-0.1,0.1-0.1c0.3,0,0.4-0.2,0.4-0.5
						c0-0.1-0.1-0.1-0.1-0.2c-0.1-0.1-0.3-0.1-0.5-0.1c0,0,0,0,0,0.1c0,0.4,0,0.8,0,1.2c0,0,0,0.1,0,0.1c0,0.1,0,0.2,0.2,0.2
						c0,0,0.1,0,0.1,0.1c0,0-0.1,0-0.1,0c-0.2,0-0.4,0-0.6,0c0,0-0.1,0-0.1,0c0,0,0-0.1,0.1-0.1c0.1,0,0.2-0.1,0.2-0.2
						c0-0.4,0-0.8,0-1.2c0-0.2,0-0.2-0.2-0.2c0,0-0.1,0-0.1-0.1c0-0.1,0,0,0.1,0c0.2,0,0.4,0,0.6,0c0.1,0,0.2,0,0.3,0.1
						c0.2,0.1,0.3,0.2,0.3,0.4c0,0.2,0,0.4-0.2,0.5C24.6,29.4,24.6,29.4,24.5,29.4z"/>
					<path class="st4" d="M28,29.3c0-0.2,0-0.4,0-0.6c0-0.1,0-0.1-0.1-0.1c0,0,0,0,0,0c0,0,0,0,0-0.1c0,0,0,0,0.1,0
						c0.2,0,0.4,0,0.5,0c0,0,0,0,0.1,0c0,0,0,0,0,0.1h0c-0.1,0-0.1,0.1-0.1,0.1c0,0.1,0,0.2,0,0.3c0,0.3,0,0.5,0,0.7
						c0,0.3-0.1,0.5-0.5,0.6c-0.2,0-0.3,0-0.5,0c-0.3-0.1-0.5-0.3-0.5-0.6c0-0.3,0-0.5,0-0.7c0-0.1,0-0.2,0-0.3c0-0.1,0-0.1-0.1-0.1
						c0,0,0,0-0.1,0c0,0,0,0-0.1-0.1c0,0,0,0,0.1,0c0.2,0,0.4,0,0.6,0c0,0,0,0,0.1,0c0,0,0,0-0.1,0.1c0,0,0,0-0.1,0
						c-0.1,0-0.1,0-0.1,0.1c0,0,0,0.1,0,0.1c0,0.3,0,0.6,0,0.8c0,0.1,0,0.1,0,0.2c0,0.1,0.1,0.2,0.2,0.2c0.2,0.1,0.3,0,0.5,0
						c0.1-0.1,0.2-0.2,0.2-0.3C28,29.6,28,29.4,28,29.3L28,29.3z"/>
					<path class="st4" d="M25.7,29.4c0,0.2,0,0.4,0,0.6c0,0.1,0,0.1,0.1,0.1c0.1,0,0.1,0,0.2,0c0,0,0,0,0.1,0.1c0,0,0,0-0.1,0
						c-0.2,0-0.5,0-0.7,0c0,0,0,0-0.1,0c0,0,0,0,0.1-0.1c0,0,0,0,0.1,0c0.1,0,0.1-0.1,0.1-0.1c0-0.1,0-0.2,0-0.3c0-0.3,0-0.6,0-1
						c0-0.1,0-0.1-0.1-0.2c0,0,0,0,0,0s0,0,0-0.1c0,0,0,0,0.1,0c0.1,0,0.2,0,0.2,0c0.3,0,0.6,0,0.9,0c0.1,0,0.1,0,0.1,0.1
						c0,0.1,0,0.2,0,0.3c0,0,0,0.1,0,0.1c0,0,0,0-0.1-0.1c0,0,0-0.1,0-0.1c0-0.1-0.1-0.2-0.2-0.2c-0.1,0-0.2,0-0.4,0
						c-0.1,0-0.1,0-0.1,0.1c0,0.2,0,0.4,0,0.5c0,0,0,0.1,0,0.1c0.1,0,0.2,0,0.3,0c0.1,0,0.1-0.1,0.2-0.1v0c0,0,0,0,0.1,0
						c0,0,0,0,0,0.1c0,0.1,0,0.1,0,0.2c0,0.1,0,0.2,0,0.3c0,0,0,0.1,0,0.1c0,0-0.1,0-0.1-0.1c0-0.1-0.1-0.2-0.2-0.2
						C25.9,29.4,25.8,29.4,25.7,29.4z"/>
					<path class="st4" d="M22.9,29.4c0-0.2,0-0.4,0-0.6c0-0.1,0-0.2-0.2-0.2h0c0,0,0,0,0-0.1c0,0,0,0,0.1,0c0.2,0,0.4,0,0.6,0l0,0
						c0,0,0,0,0,0.1l0,0c-0.1,0-0.2,0.1-0.2,0.2c0,0.1,0,0.2,0,0.3c0,0.3,0,0.6,0,0.8c0,0,0,0.1,0,0.1c0,0.1,0,0.2,0.2,0.2
						c0,0,0,0,0.1,0.1c0,0,0,0-0.1,0c-0.2,0-0.4,0-0.6,0c0,0-0.1,0-0.1,0c0,0,0,0,0.1-0.1c0.1,0,0.2-0.1,0.2-0.2
						C22.9,29.8,22.9,29.5,22.9,29.4L22.9,29.4z"/>
					<path class="st4" d="M27.4,24.6c-0.2,0.3-0.5,0.4-0.9,0.5c-0.1,0-0.2,0.1-0.3,0.2C26.1,25.5,26,25.7,26,26
						c-0.1,0.5,0,0.9,0.1,1.4c0,0.2,0.1,0.3,0.1,0.5c0,0.1,0,0.1-0.1,0.1c-0.4,0-0.8,0-1.3,0c0,0,0,0-0.1,0c0,0,0-0.1,0-0.1
						c0.2-0.3,0.4-0.7,0.4-1.1c0.1-0.6-0.1-1.2-0.5-1.7c-0.1-0.2-0.3-0.3-0.5-0.4c-0.2-0.1-0.3-0.2-0.5-0.3c0,0.2,0.1,0.3,0.1,0.5
						c0,0.2,0,0.4-0.1,0.6s-0.2,0.3-0.5,0.2c-0.1,0-0.3-0.1-0.4-0.2c-0.1-0.1-0.1-0.1-0.2-0.1c-0.2,0-0.3,0-0.4-0.1
						c-0.2-0.1-0.2-0.2-0.2-0.4c0.1-0.3,0.2-0.5,0.4-0.6c0,0,0.1-0.1,0.1-0.1c0,0,0,0,0,0c0,0-0.1,0-0.1,0c-0.2,0.1-0.5,0.1-0.7,0.1
						c-0.1,0-0.2-0.1-0.3-0.1c-0.2-0.1-0.2-0.2-0.1-0.4c0-0.1,0.1-0.3,0.2-0.4c0.1-0.1,0.1-0.1,0.1-0.2c0-0.2,0-0.3,0.1-0.5
						c0.1-0.2,0.2-0.2,0.4-0.2c0.3,0.1,0.5,0.2,0.6,0.4C23,23,23,23,23.1,23.1c0-0.1,0-0.1,0-0.2c0-0.2-0.1-0.5,0-0.7
						c0.1-0.2,0.2-0.3,0.5-0.3c0.1,0,0.2,0.1,0.4,0.2c0.1,0.1,0.1,0.1,0.2,0c0.3-0.2,0.6-0.2,1-0.2c0,0,0.1,0,0.1,0
						c0-0.2,0-0.4,0-0.6c0,0-0.1,0-0.1,0.1c-0.2,0.2-0.4,0.3-0.7,0.4c-0.2,0.1-0.4,0.1-0.6,0c-0.2,0-0.3-0.2-0.3-0.4
						c0-0.1,0-0.3,0.1-0.4c0-0.1,0-0.1,0-0.2c-0.1-0.2-0.1-0.3,0-0.5c0.1-0.2,0.2-0.2,0.3-0.3c0.2,0,0.4,0.1,0.6,0.2
						c0.1,0,0.1,0.1,0.2,0.2c0,0,0,0,0.1,0c0,0,0-0.1,0-0.1c-0.1-0.2-0.2-0.5-0.3-0.7c0-0.1,0-0.3,0-0.4c0-0.2,0.2-0.2,0.4-0.2
						c0.1,0,0.3,0,0.4,0.1c0.1,0,0.1,0,0.2,0c0.1,0,0.3-0.1,0.4,0c0.2,0,0.3,0.2,0.3,0.4c0,0.2,0,0.3-0.1,0.5
						c-0.1,0.2-0.2,0.3-0.3,0.5c0,0,0,0,0,0.1c0,0,0.1,0,0.1,0c0.2-0.1,0.4-0.2,0.6-0.2c0.1,0,0.2,0,0.3,0c0.2,0,0.3,0.2,0.3,0.5
						c0,0.1-0.1,0.2-0.1,0.3c0,0.1,0,0.1,0,0.2c0,0.2,0.1,0.3,0,0.5c0,0.2-0.2,0.3-0.4,0.3c-0.3,0-0.5-0.1-0.7-0.3
						c-0.2-0.1-0.3-0.3-0.4-0.4c0,0,0,0,0,0s0,0,0,0c0,0,0,0.1,0,0.1c0,0.2,0,0.3,0,0.5c0,0,0,0,0.1,0.1c0.5,0.1,0.8,0.2,1.2,0.5
						c0,0,0,0,0,0c0,0,0.1-0.1,0.1-0.1c0.1-0.1,0.2-0.2,0.3-0.3c0.2-0.1,0.3-0.1,0.4,0.1c0.1,0.2,0.2,0.3,0.2,0.5c0,0.1,0,0.2,0,0.4
						c0,0,0,0,0,0.1c0,0,0,0,0-0.1c0.1-0.2,0.2-0.4,0.3-0.6c0.1-0.1,0.2-0.2,0.3-0.2c0.1-0.1,0.3-0.1,0.4,0.1
						c0.1,0.1,0.2,0.3,0.2,0.4c0,0.1,0.1,0.1,0.1,0.2c0.1,0.1,0.2,0.2,0.3,0.3c0.1,0.2,0.1,0.3-0.1,0.5C29.4,24,29.2,24,29,24
						c-0.2,0-0.3,0-0.5,0c0,0,0.1,0,0.1,0c0.2,0.1,0.3,0.2,0.4,0.3c0.1,0.1,0.2,0.2,0.3,0.3s0,0.3-0.1,0.4c-0.1,0.1-0.3,0.2-0.4,0.2
						c-0.1,0-0.2,0.1-0.2,0.1c-0.1,0.1-0.2,0.2-0.4,0.3c-0.2,0.1-0.3,0-0.4-0.1c-0.1-0.1-0.2-0.3-0.2-0.5
						C27.4,25,27.4,24.8,27.4,24.6z M25.1,23.2C25.1,23.3,25.1,23.3,25.1,23.2C25,23.3,25,23.2,25.1,23.2C25,23.2,25,23.2,25.1,23.2
						C25,23.1,25,23.1,25,23c-0.3-0.1-0.6-0.1-0.8-0.1c-0.1,0-0.2,0-0.3,0.1c-0.1,0-0.1,0.1-0.2,0.2c0,0.3,0.1,0.6,0.3,0.8
						c0.6,0.5,1.2,0.7,1.9,0.8c0.3,0,0.6,0,0.8-0.1c0.2-0.1,0.3-0.1,0.4-0.3s0.1-0.3,0-0.4c-0.2-0.2-0.4-0.4-0.6-0.5
						c-0.2-0.1-0.4-0.2-0.6-0.3c0,0.1,0,0.1-0.1,0.2c0,0,0,0-0.1,0.1c0,0,0,0-0.1-0.1c0-0.1,0-0.1,0-0.2c-0.1-0.1-0.1-0.1-0.2,0.1
						c0,0,0,0-0.1,0.1c0,0,0,0-0.1-0.1v0C25.3,23.2,25.3,23.2,25.1,23.2C25.1,23.1,25.1,23.1,25.1,23.2
						C25.2,23.2,25.2,23.2,25.1,23.2z M25.7,23.1c0.1,0,0.1,0,0.1,0c0,0.1,0,0.1,0.1,0.1c0.3,0.1,0.6,0.3,0.8,0.5
						c0.1,0.1,0.3,0.2,0.4,0.4c0,0,0.1,0,0.1,0c0,0,0-0.1,0-0.1c0-0.3-0.2-0.5-0.3-0.7c-0.4-0.5-0.8-0.8-1.5-0.9
						c-0.5-0.1-1-0.1-1.4,0.2c-0.1,0-0.2,0.1-0.2,0.2c0,0,0,0.1,0,0.1c0,0,0.1,0,0.1,0s0,0,0.1,0c0.1,0,0.2,0,0.3,0
						c0.3,0,0.5,0.1,0.8,0.1c0,0,0.1,0,0.1,0c0,0,0.1-0.1,0.1-0.1c0,0,0.1,0,0.1,0s0,0.1,0,0.1s0,0,0,0c0.1,0,0.1,0,0.2,0
						c0,0,0.1,0,0.1,0c0,0,0,0.1,0,0.1C25.6,23.1,25.6,23.1,25.7,23.1z M25,25c0.1,0.1,0.1,0.2,0.2,0.3c0.2,0.4,0.2,0.7,0.2,1.1
						c0,0.3,0,0.5,0,0.8c0.1-0.1,0.1-0.2,0.2-0.4c0.2-0.5,0.2-0.9,0.2-1.4c0-0.1,0-0.2-0.1-0.3c0-0.1-0.1-0.1-0.1-0.1
						C25.4,25.1,25.2,25,25,25C25,25,25,25,25,25C25,25,25,25,25,25z"/>
				</g>
			</g>
		</g>
	</g>
	<g>
		<path class="st22" d="M40.9,17.4c0,0,2.9,24.6-15.9,28.6C6.2,42,9.1,17.4,9.1,17.4S19.8,7.5,37.8,4C37.8,4,40.2,9.7,40.9,17.4z"/>
	</g>
</g>
</svg>
